<mxfile host="Electron" agent="Mozilla/5.0 (Macintosh; Intel Mac OS X 10_15_7) AppleWebKit/537.36 (KHTML, like Gecko) draw.io/26.1.1 Chrome/132.0.6834.210 Electron/34.3.3 Safari/537.36" version="26.1.1">
  <diagram name="Page-1" id="AbsRLj08mvbvdXAxlcfi">
    <mxGraphModel dx="427" dy="330" grid="1" gridSize="10" guides="1" tooltips="1" connect="1" arrows="1" fold="1" page="1" pageScale="1" pageWidth="850" pageHeight="1100" math="1" shadow="0">
      <root>
        <mxCell id="0" />
        <mxCell id="1" parent="0" />
        <mxCell id="OCaYFKrVgKFIpjJ27dyq-3" style="edgeStyle=orthogonalEdgeStyle;rounded=0;orthogonalLoop=1;jettySize=auto;html=1;exitX=1;exitY=0.25;exitDx=0;exitDy=0;entryX=0;entryY=0.25;entryDx=0;entryDy=0;" edge="1" parent="1" source="OCaYFKrVgKFIpjJ27dyq-1" target="OCaYFKrVgKFIpjJ27dyq-2">
          <mxGeometry relative="1" as="geometry" />
        </mxCell>
        <mxCell id="OCaYFKrVgKFIpjJ27dyq-1" value="\[ c_1 \]" style="rounded=1;whiteSpace=wrap;html=1;" vertex="1" parent="1">
          <mxGeometry x="160" y="120" width="40" height="40" as="geometry" />
        </mxCell>
        <mxCell id="OCaYFKrVgKFIpjJ27dyq-4" style="edgeStyle=orthogonalEdgeStyle;rounded=0;orthogonalLoop=1;jettySize=auto;html=1;exitX=0;exitY=0.75;exitDx=0;exitDy=0;" edge="1" parent="1" source="OCaYFKrVgKFIpjJ27dyq-2">
          <mxGeometry relative="1" as="geometry">
            <mxPoint x="200" y="149.99999999999994" as="targetPoint" />
          </mxGeometry>
        </mxCell>
        <mxCell id="OCaYFKrVgKFIpjJ27dyq-2" value="\[ c_2 \]" style="rounded=1;whiteSpace=wrap;html=1;" vertex="1" parent="1">
          <mxGeometry x="260" y="120" width="40" height="40" as="geometry" />
        </mxCell>
        <mxCell id="OCaYFKrVgKFIpjJ27dyq-5" value="\[ k_{12} \]" style="text;html=1;align=center;verticalAlign=middle;resizable=0;points=[];autosize=1;strokeColor=none;fillColor=none;fontSize=10;" vertex="1" parent="1">
          <mxGeometry x="195" y="103" width="70" height="30" as="geometry" />
        </mxCell>
        <mxCell id="OCaYFKrVgKFIpjJ27dyq-6" value="\[ k_{21} \]" style="text;html=1;align=center;verticalAlign=middle;resizable=0;points=[];autosize=1;strokeColor=none;fillColor=none;fontSize=10;" vertex="1" parent="1">
          <mxGeometry x="195" y="146" width="70" height="30" as="geometry" />
        </mxCell>
        <mxCell id="OCaYFKrVgKFIpjJ27dyq-7" value="\[ k_d \]" style="text;html=1;align=center;verticalAlign=middle;resizable=0;points=[];autosize=1;strokeColor=none;fillColor=none;fontSize=10;" vertex="1" parent="1">
          <mxGeometry x="300" y="112" width="60" height="30" as="geometry" />
        </mxCell>
        <mxCell id="OCaYFKrVgKFIpjJ27dyq-8" style="edgeStyle=orthogonalEdgeStyle;rounded=0;orthogonalLoop=1;jettySize=auto;html=1;exitX=1;exitY=0.25;exitDx=0;exitDy=0;" edge="1" parent="1">
          <mxGeometry relative="1" as="geometry">
            <mxPoint x="300" y="139.55" as="sourcePoint" />
            <mxPoint x="340" y="140" as="targetPoint" />
          </mxGeometry>
        </mxCell>
        <mxCell id="OCaYFKrVgKFIpjJ27dyq-11" value="" style="shape=image;aspect=fixed;image=data:image/svg+xml,PD94bWwgdmVyc2lvbj0iMS4wIiBlbmNvZGluZz0idXRmLTgiPz4NCjwhLS0gVXBsb2FkZWQgdG86IFNWRyBSZXBvLCB3d3cuc3ZncmVwby5jb20sIEdlbmVyYXRvcjogU1ZHIFJlcG8gTWl4ZXIgVG9vbHMgLS0+DQo8c3ZnIGZpbGw9IiMwMDAwMDAiIGhlaWdodD0iODAwcHgiIHdpZHRoPSI4MDBweCIgdmVyc2lvbj0iMS4xIiBpZD0iTGF5ZXJfMSIgeG1sbnM9Imh0dHA6Ly93d3cudzMub3JnLzIwMDAvc3ZnIiB4bWxuczp4bGluaz0iaHR0cDovL3d3dy53My5vcmcvMTk5OS94bGluayIgDQoJIHZpZXdCb3g9IjAgMCA2NCA2NCIgZW5hYmxlLWJhY2tncm91bmQ9Im5ldyAwIDAgNjQgNjQiIHhtbDpzcGFjZT0icHJlc2VydmUiPg0KPHBhdGggaWQ9IlN5cmluZ2VfMl8iIGQ9Ik01Mi4xMTA1OTk1LDYuMDY3ODc0OUw0MS44MzM3MDU5LDAuMTM0Mjc0OWMtMC40ODAwMDM0LTAuMjc3My0xLjA4OTgwNTYtMC4xMTMyLTEuMzY2MjA3MSwwLjM2NjMNCgljLTAuMjc1OTAxOCwwLjQ3ODUtMC4xMTIzMDA5LDEuMDg5OCwwLjM2NjIwNzEsMS4zNjYybDQuMjcxOTk5NCwyLjQ2NjQ5OThsLTUuNzM3MTA2Myw5LjkzNjQwMDRsLTguMTAwMjk5OC00LjY1NDkwMDYNCgljLTAuNDc2NTk0OS0wLjI3MzM5OTQtMS4wODk0MDEyLTAuMTEwMzAwMS0xLjM2NTIsMC4zNjkxMDA2Yy0wLjI3NDkwMDQsMC40Nzg1OTk1LTAuMTA5ODk5NSwxLjA4OTksMC4zNjkxMDA2LDEuMzY1Mjk5Mg0KCWwyLjk1MjE5OTksMS42OTY1MDA4TDE3LjI5OTA5OSw0MC42Mjk0NzQ2Yy0wLjU5NzIwMDQsMS4wMzUwOTktMC43NTU4OTk0LDIuMjQwMi0wLjQ0NjgwMDIsMy4zOTM1MDEzDQoJYzAuMzA5MTAxMSwxLjE1NDMwMDcsMS4wNDg3OTk1LDIuMTE4MTk4NCwyLjA4MzQ5OTksMi43MTQ4OTcybDEuMjY1ODAwNSwwLjczMDkwMzZsLTguNjc4NCwxNS4wMzE3OTkzDQoJYy0wLjI3NTg5OTksMC40Nzg1MDA0LTAuMTEyMjk5OSwxLjA4OTc5OCwwLjM2NjIwMDQsMS4zNjYxOTk1YzAuMTU3Njk5NiwwLjA5MDgwMTIsMC4zMjk1OTk0LDAuMTMzNzk2NywwLjQ5ODk5OTYsMC4xMzM3OTY3DQoJYzAuMzQ1NzAwMywwLDAuNjgxNjk5OC0wLjE3OTY5ODksMC44NjcxOTk5LTAuNDk5OTk2Mmw4LjY3ODIwMDctMTUuMDMxNTAxOGwxLjE4MjYsMC42ODI4MDAzDQoJYzAuNzE3MzA0MiwwLjQxNDEwMDYsMS41MDE0OTkyLDAuNjExMzAxNCwyLjI3NTg5OTksMC42MTEzMDE0YzEuNTc5NTk5NCwwLDMuMTE4MTk4NC0wLjgxOTMwMTYsMy45NjQ0MDUxLTIuMjgzMTk5Mw0KCWwxNS44OTEyOTI2LTI3LjUyNDkwMjNsMy4wMjQyMDA0LDEuNzM3ODAwNmMwLjE1NjcwMDEsMC4wODk5MDEsMC4zMjgxMDIxLDAuMTMyNzk5MSwwLjQ5NzEwMDgsMC4xMzI3OTkxDQoJYzAuMzQ2MTk5LDAsMC42ODMwOTc4LTAuMTc5NTk5OCwwLjg2ODA5OTItMC41MDE4OTk3YzAuMjc0OTAyMy0wLjQ3ODQ5ODUsMC4xMDk5MDE0LTEuMDg5ODk5MS0wLjM2OTA5ODctMS4zNjUyDQoJbC04LjE2NTMwMjMtNC42OTIxOTk3bDUuNzM1MDk5OC05LjkzMjgwMDNsNC4yNzI1MDI5LDIuNDY2ODAwMmMwLjE1NzY5OTYsMC4wOTA3OTk4LDAuMzI5NTk3NSwwLjEzMzY5OTksMC40OTkwMDA1LDAuMTMzNjk5OQ0KCWMwLjM0NTY5OTMsMCwwLjY4MTU5ODctMC4xNzg3LDAuODY3MTk4OS0wLjVDNTIuNzUyNzA0Niw2Ljk1NTU3NSw1Mi41ODkwOTk5LDYuMzQ0Mjc1LDUyLjExMDU5OTUsNi4wNjc4NzQ5eg0KCSBNMzkuMDA1Nzk4MywyNi43NjY4NzQzbC00LjI3MjcwMTMtMi40NjY0OTkzYy0wLjQ3OTkwMDQtMC4yNzYzOTk2LTEuMDg5Nzk4LTAuMTExNDAwNi0xLjM2NjE5OTUsMC4zNjYxOTk1DQoJYy0wLjI3NTc5ODgsMC40Nzg1MDA0LTAuMTExNzk3MywxLjA4OTc5OTksMC4zNjYxOTk1LDEuMzY2MjAxNEwzOC4wMDU2LDI4LjQ5OTE3NDFsLTEuOTcwMzAyNiwzLjQxMzAwMDFsLTQuMjcyMzk4LTIuNDY2Mjk5MQ0KCWMtMC40ODA0MDAxLTAuMjc2Mzk5Ni0xLjA4OTc5OTktMC4xMTE0MDA2LTEuMzY2MTk1NywwLjM2NjE5OTVjLTAuMjc1OTA1NiwwLjQ3ODUwMDQtMC4xMTE4MDUsMS4wODk3OTk5LDAuMzY2MTk1NywxLjM2NjE5OTUNCglsNC4yNzIxOTk2LDIuNDY2MTk5OWwtMS45MjQzMDExLDMuMzMzMDk5NGwtNC4yNzM2OTg4LTIuNDY2Mjk3MWMtMC40ODAzOTQ0LTAuMjc3NDAxLTEuMDkwMjk5Ni0wLjExMTMwMTQtMS4zNjYxOTk1LDAuMzY2MTk5NQ0KCWMtMC4yNzU4MDA3LDAuNDc4NTAwNC0wLjExMTgwMTEsMS4wODk3OTgsMC4zNjYxOTk1LDEuMzY2MTk5NWw0LjI3MzYwMzQsMi40NjYwOTg4bC0yLjAzNjQwMzcsMy41MjczMDE4bC00LjI3MzMwMDItMi40NjgwMDIzDQoJYy0wLjQ3OTAwMDEtMC4yNzYzOTc3LTEuMDg5Nzk5OS0wLjExMzMwMDMtMS4zNjU2OTk4LDAuMzY2MjAzM2MtMC4yNzYzOTk2LDAuNDc4NDk2Ni0wLjExMjgwMDYsMS4wODk4OTcyLDAuMzY1Njk5OCwxLjM2NjE5OTUNCglsNC4yNzMyMDEsMi40Njc4OTkzbC0xLjQ0OTQ5NTMsMi41MTA2MDFjLTAuNzA4OTA2MiwxLjIyNDY5NzEtMi4yODI3MDUzLDEuNjQ5NDk4LTMuNTA4MzA0NiwwLjkzOTQ5ODlsLTQuMTgxMTAwOC0yLjQxNDEwMDYNCgljLTAuNTcxODAwMi0wLjMzMDAwMTgtMC45ODA0OTkzLTAuODYyMzAwOS0xLjE1MTM5OTYtMS41Yy0wLjE3MDQwMDYtMC42Mzc2OTkxLTAuMDgyNTAwNS0xLjMwMzY5OTUsMC4yNDc2MDA2LTEuODc1OTAwMw0KCWwxNS45MTU5OTg1LTI3LjU2NzRsOC41NDUzOTg3LDQuOTMyNkwzOS4wMDU3OTgzLDI2Ljc2Njg3NDN6Ii8+DQo8L3N2Zz4=;" vertex="1" parent="1">
          <mxGeometry x="170" y="80" width="40" height="40" as="geometry" />
        </mxCell>
        <mxCell id="OCaYFKrVgKFIpjJ27dyq-12" value="&quot;central&quot;" style="text;html=1;align=center;verticalAlign=middle;resizable=0;points=[];autosize=1;strokeColor=none;fillColor=none;fontSize=8;" vertex="1" parent="1">
          <mxGeometry x="155" y="156" width="50" height="20" as="geometry" />
        </mxCell>
        <mxCell id="OCaYFKrVgKFIpjJ27dyq-13" value="&quot;peripheral&quot;" style="text;html=1;align=center;verticalAlign=middle;resizable=0;points=[];autosize=1;strokeColor=none;fillColor=none;fontSize=8;" vertex="1" parent="1">
          <mxGeometry x="250" y="156" width="60" height="20" as="geometry" />
        </mxCell>
      </root>
    </mxGraphModel>
  </diagram>
</mxfile>
